<?xml version="1.0" encoding="UTF-8" standalone="no"?>
<svg
   xmlns:dc="http://purl.org/dc/elements/1.1/"
   xmlns:cc="http://creativecommons.org/ns#"
   xmlns:rdf="http://www.w3.org/1999/02/22-rdf-syntax-ns#"
   xmlns:svg="http://www.w3.org/2000/svg"
   xmlns="http://www.w3.org/2000/svg"
   xmlns:sodipodi="http://sodipodi.sourceforge.net/DTD/sodipodi-0.dtd"
   xmlns:inkscape="http://www.inkscape.org/namespaces/inkscape"
   width="210mm"
   height="297mm"
   viewBox="0 0 210 297"
   version="1.1"
   id="svg8"
   inkscape:version="1.0.2-2 (e86c870879, 2021-01-15)"
   sodipodi:docname="logo.svg">
  <defs
     id="defs2" />
  <sodipodi:namedview
     id="base"
     pagecolor="#ffffff"
     bordercolor="#666666"
     borderopacity="1.0"
     inkscape:pageopacity="0.0"
     inkscape:pageshadow="2"
     inkscape:zoom="0.98994949"
     inkscape:cx="528.01894"
     inkscape:cy="522.70996"
     inkscape:document-units="mm"
     inkscape:current-layer="layer1"
     inkscape:document-rotation="0"
     showgrid="false"
     inkscape:window-width="1264"
     inkscape:window-height="760"
     inkscape:window-x="0"
     inkscape:window-y="0"
     inkscape:window-maximized="0" />
  <metadata
     id="metadata5">
    <rdf:RDF>
      <cc:Work
         rdf:about="">
        <dc:format>image/svg+xml</dc:format>
        <dc:type
           rdf:resource="http://purl.org/dc/dcmitype/StillImage" />
        <dc:title></dc:title>
      </cc:Work>
    </rdf:RDF>
  </metadata>
  <g
     inkscape:label="Layer 1"
     inkscape:groupmode="layer"
     id="layer1">
    <path
       style="fill:#000000;fill-opacity:0;stroke-width:0.704;fill-rule:nonzero;stroke:#000000;stroke-opacity:1;stroke-miterlimit:4;stroke-dasharray:none;stroke-linejoin:round"
       d="m 198.19687,53.726281 c 0,0.03815 0.11906,0.06936 0.26458,0.06936 0.14552,0 0.26459,-0.07496 0.26459,-0.166566 0,-0.09161 -0.11907,-0.12282 -0.26459,-0.06936 -0.14552,0.05346 -0.26458,0.128416 -0.26458,0.166566 z M 87.486299,156.17326 v -5e-5 c -3.28611,0.35784 -5.17647,-0.0356 -6.42935,-1.33802 -1.08513,-1.12808 -0.60442,-2.73767 0.81763,-2.73767 0.83235,0 1.22854,0.29074 1.22854,0.90157 0,1.49722 1.8664,2.35832 4.77208,2.2017 1.80586,-0.0974 3.63009,-0.55016 4.67829,-1.16126 0.90962,-0.53031 2.20968,-1.79837 2.63603,-2.57114 0.16703,-0.30277 0.97746,-1.67185 1.80095,-3.0424 0.82348,-1.37055 1.45198,-2.51884 1.39658,-2.55174 -0.05536,-0.0329 -0.78401,0.43741 -1.61922,1.04516 -3.17717,2.31187 -6.15931,2.67993 -6.90995,0.85283 l -0.19385,-0.47185 -0.43618,0.3932 c -1.03933,0.93693 -3.69177,2.59063 -4.60694,2.87227 -3.66028,1.12643 -3.78351,-1.87779 -0.32667,-7.96406 0.81151,-1.4288 2.00478,-3.31724 2.65169,-4.19655 0.6964,-0.9466 1.00159,-1.51258 0.7481,-1.38752 -0.44006,0.2171 -4.30731,3.41025 -5.25237,4.33682 -0.29104,0.28535 -1.28777,1.27984 -2.21496,2.20998 -6.02081,6.04 -7.21036,6.9183 -8.40672,6.20712 -1.44046,-0.85629 1.43159,-7.40945 5.41909,-12.36477 0.87692,-1.08975 1.53713,-1.98137 1.46713,-1.98137 -0.41635,0 -1.69089,0.52999 -2.52196,1.0487 -1.82208,1.13725 -3.96353,3.24144 -7.14148,7.01723 -4.46522,5.30521 -6.25537,6.8513 -8.93768,7.71914 -3.10079,1.00324 -6.49876,0.47461 -5.32556,-0.82852 0.24568,-0.27292 0.54557,-0.32922 1.75283,-0.32922 2.39275,0 4.10402,-0.70252 6.8174,-2.79872 1.40457,-1.08508 2.50211,-2.12621 5.33988,-5.06544 3.05128,-3.16035 3.78122,-3.86987 4.78772,-4.65371 1.15516,-0.89961 0.76655,-0.82958 -1.93172,0.34812 -3.2127,1.40222 -4.79371,2.24053 -6.63705,3.51918 -1.95396,1.3554 -2.55976,1.997 -2.81423,2.98058 -0.21724,0.83962 -0.54786,1.10878 -1.36202,1.10878 -1.56788,0 -1.92008,-1.25497 -0.74545,-2.65621 1.10837,-1.3222 3.75823,-2.77201 8.44142,-4.61855 6.19733,-2.44354 10.35859,-3.73506 12.03434,-3.73506 0.81664,0 1.84673,0.46936 1.84673,0.84146 0,0.11678 -0.345,0.49544 -0.76667,0.84147 -3.03969,2.49444 -8.34253,9.83689 -8.92268,12.35459 -0.32189,1.39688 0.32216,0.96358 4.10183,-2.75958 1.03585,-1.02036 1.88336,-1.88176 1.88336,-1.91426 0,-0.11196 2.7129,-2.68347 4.68607,-4.44182 2.23373,-1.99056 4.80954,-3.84697 6.22905,-4.48933 1.23245,-0.55766 2.47534,-0.58204 2.87822,-0.0564 0.25383,0.33117 0.0068,0.68328 -2.06906,2.94905 -3.41634,3.72891 -5.48929,6.6167 -6.65102,9.26543 -1.26245,2.87836 -0.94274,3.50676 1.31925,2.59305 1.47155,-0.59443 3.41154,-2.25258 6.17162,-5.27505 3.42911,-3.75509 4.06432,-4.31299 4.9824,-4.37569 0.91978,-0.0629 1.50346,0.20832 1.50346,0.69849 0,0.20536 -0.84092,1.16988 -1.86873,2.14339 -2.34981,2.22568 -4.28313,4.55483 -4.1706,5.02448 0.04741,0.19791 0.26613,0.38016 0.48603,0.40506 0.71243,0.0806 2.86024,-0.87049 4.08765,-1.81007 1.08401,-0.82979 3.58232,-3.11939 3.58232,-3.28304 0,-0.0368 0.276241,-0.33087 0.613861,-0.65354 0.33763,-0.32268 0.82386,-0.90519 1.08053,-1.29446 0.5837,-0.88528 1.13671,-1.25827 1.86558,-1.25827 0.73652,0 1.20254,0.28607 1.20254,0.73819 0,0.32695 -4.49598,7.13012 -6.208701,9.3948 -2.47593,3.27385 -6.63296,5.59544 -10.83938,6.0535 z m 64.805361,0.32824 v 0.39323 l -8.01045,0.0416 c -6.95421,0.0361 -8.03074,0.0102 -8.16425,-0.1966 -0.40852,-0.63289 -0.003,-0.71009 3.73099,-0.71009 h 3.58017 v -5.73366 -5.73366 l -3.46182,0.0111 c -3.65376,0.0117 -4.33126,-0.0994 -3.77958,-0.61955 0.2588,-0.24404 1.02024,-0.27534 7.66697,-0.31504 4.0588,-0.0243 7.64753,-0.005 7.97495,0.0423 0.74729,0.1085 0.8607,0.86071 0.1323,0.87751 -0.25467,0.006 -1.80248,0.008 -3.43959,0.006 l -2.97656,-0.004 v 5.72983 5.72982 l 3.37344,0.044 3.37343,0.044 z m -33.2052,-15.66074 v 1.97711 h 4.07363 4.07364 l 0.79581,-0.53881 c 1.3949,-0.94442 1.35172,-2.1216 -0.10775,-2.93761 -0.64182,-0.35881 -0.87089,-0.37941 -4.75482,-0.42741 l -4.08051,-0.0504 z m 0,8.97621 v 5.89811 l 3.24114,-9.1e-4 c 1.78263,-5e-4 3.94893,-0.0698 4.814,-0.15402 3.23117,-0.31453 5.69177,-1.43422 7.22176,-3.28624 0.64989,-0.78665 0.73039,-1.05779 0.73039,-2.4597 0,-1.45798 -0.0639,-1.65273 -0.85557,-2.60924 -1.1077,-1.33828 -3.13653,-2.49246 -5.18031,-2.94703 -1.32749,-0.29529 -2.0706,-0.33909 -5.748,-0.33909 h -4.22341 z m 10.18982,6.84112 v -10e-6 c -1.3452,0.27516 -2.22657,0.31526 -6.92395,0.31526 h -5.38254 v -9.59427 -9.59427 h 5.09736 c 4.45952,0 5.21188,0.0365 6.01264,0.2918 2.92314,0.93192 3.57497,3.17756 1.31603,4.53382 l -1.06231,0.63781 1.03509,0.0984 c 2.48697,0.23641 5.3618,1.72507 6.86823,3.55656 0.94989,1.15481 0.97359,1.22775 0.97359,2.99242 0,1.75627 -0.028,1.84357 -0.96393,3.00865 -1.56066,1.94271 -3.6705,3.07897 -6.97021,3.75383 z m 56.66943,1.61285 c -0.20619,0.15138 -0.42346,0.27524 -0.48286,0.27524 -0.19955,0 -2.74305,-1.28803 -2.83465,-1.43545 -0.0498,-0.0802 0.33298,-0.42446 0.85062,-0.76507 2.17594,-1.43174 3.18268,-3.28673 3.02084,-5.56605 -0.13047,-1.83743 -0.78613,-2.94982 -2.42612,-4.11611 -3.17166,-2.25557 -8.38908,-1.7891 -10.69553,0.95624 -1.21158,1.44218 -1.4607,2.36073 -1.29588,4.77887 l 0.15458,2.26796 -1.90273,-1.09746 c -2.58198,-1.48925 -5.46547,-3.10625 -6.26836,-3.51518 -0.3638,-0.1853 -1.4056,-0.76508 -2.3151,-1.28842 l -1.65365,-0.95152 v 4.97289 c 0,3.67286 -0.0804,4.97288 -0.30747,4.97288 -0.16911,0 -0.94302,-0.11909 -1.71979,-0.26464 l -1.41232,-0.26465 v -7.46816 -7.46816 l 4.56406,2.64808 c 2.51024,1.45645 5.3363,3.10065 6.28015,3.65378 l 1.71609,1.00569 0.30596,-1.15063 c 1.20661,-4.53775 6.94678,-7.22163 12.66377,-5.9211 2.94776,0.67057 5.56129,2.51871 6.92578,4.89751 0.68562,1.19527 0.73902,1.4649 0.73302,3.72639 -0.006,2.22348 -0.0688,2.54964 -0.71962,3.70849 -0.61717,1.09897 -1.88373,2.45623 -3.18079,3.40858 z m -11.30372,5.38195 c 0.64275,0.46039 4.48765,0.22869 5.422,-0.32674 0.22319,-0.13267 0.4058,-0.44954 0.4058,-0.70415 0,-0.94592 -2.89388,-1.42792 -4.68194,-0.77981 -1.03342,0.37458 -1.69385,1.41819 -1.14586,1.8107 z m 4.1755,0.39177 v -2e-5 c -1.72303,0.21965 -3.62496,0.20297 -4.43312,-0.0389 -0.52114,-0.15597 -0.67862,-0.33771 -0.74232,-0.85673 -0.0983,-0.80057 0.24743,-1.22104 1.25979,-1.53224 1.10556,-0.33983 4.16687,-0.35606 5.22938,-0.0277 2.31207,0.71452 1.57783,2.08695 -1.31373,2.45559 z m -25.30986,-0.39237 v -4e-5 c 0.0801,0.34928 -0.009,0.48042 -0.3553,0.52262 -0.50255,0.0613 -0.99296,-0.50034 -0.99296,-1.13714 0,-0.43908 -0.47777,-0.69395 -1.17625,-0.62735 -1.91164,0.18208 -5.17375,0.24604 -5.17375,0.10138 0,-0.0976 1.19386,-0.21026 2.93921,-0.27756 l 2.93921,-0.11324 -0.15929,-0.48983 c -0.0876,-0.2694 -0.23575,-0.6915 -0.32925,-0.93799 -0.14149,-0.37311 -0.0912,-0.43901 0.3,-0.39321 0.28643,0.0335 0.67592,0.37743 0.99735,0.8807 0.6159,0.96431 0.38381,0.93713 5.52494,0.64698 2.20293,-0.12428 3.25147,-0.12865 3.44383,-0.0143 0.28261,0.168 0.1109,0.18219 -5.60183,0.46283 -2.78667,0.1369 -2.65747,0.0614 -2.35591,1.37615 z m -29.07659,0.0528 -5e-5,10e-6 c 0.45567,0.27087 3.19132,0.23264 4.42967,-0.0619 2.4263,-0.57711 1.29604,-2.10862 -1.55616,-2.10862 -1.27519,0 -2.26839,0.33933 -2.80766,0.95925 -0.46638,0.53619 -0.4894,0.95945 -0.0658,1.21126 z m 5.31154,0.0486 v 2.9e-4 c -1.3546,0.38979 -4.78212,0.56874 -5.81956,0.30379 -1.28906,-0.3292 -0.94109,-1.83722 0.54853,-2.37718 1.1856,-0.43005 4.46001,-0.42582 5.65416,0.007 1.64265,0.59539 1.46876,1.53318 -0.38313,2.0661 z m -30.081201,-0.27751 h 5e-5 c -0.18499,0.55792 -0.36018,0.73223 -0.73591,0.73223 -0.27122,0 -0.54114,-0.0885 -0.59984,-0.1966 -0.70649,-1.30162 -1.99335,-3.98857 -1.99335,-4.1621 0,-0.14243 0.21624,-0.20603 0.59233,-0.17413 0.51448,0.0437 0.67576,0.25273 1.22712,1.59081 l 0.63478,1.54055 0.56244,-0.3141 c 0.980811,-0.54774 2.411021,-0.80096 4.523971,-0.80096 2.28167,0 3.49621,0.24375 4.3212,0.86721 0.73321,0.55415 0.76786,1.17747 0.0654,1.17747 -0.34454,0 -0.56192,-0.14555 -0.67518,-0.45209 -0.0919,-0.24866 -0.46812,-0.62024 -0.83609,-0.82574 -0.60022,-0.33524 -0.90985,-0.37364 -3.00958,-0.37364 -2.92179,0 -3.70467,0.2671 -4.077341,1.39109 z m -25.87817,-0.11202 -4e-5,-4e-5 c 0.42902,0.25508 0.74529,0.26185 2.83762,0.0608 2.66878,-0.25645 4.34627,-0.86375 3.60423,-1.30486 -0.73969,-0.43979 -6.25693,-0.77711 -7.15899,-0.43779 -0.32728,0.12312 -0.32898,0.23422 -0.0122,0.80481 0.20213,0.36408 0.53035,0.75877 0.72938,0.87708 z m 1.24984,1.63094 v 4e-5 c -0.39215,0.37719 -0.98085,0.0839 -1.81616,-0.90465 -1.01597,-1.20241 -1.93302,-2.81728 -1.68395,-2.96533 0.09135,-0.0543 0.54347,-0.0205 1.00471,0.0751 0.46124,0.0955 1.10473,0.134 1.42999,0.0855 0.32527,-0.0486 1.67135,-0.0166 2.9913,0.071 2.46543,0.16363 4.55668,0.63254 4.55668,1.02172 0,0.58596 -2.12186,1.10457 -5.27504,1.28927 -1.96934,0.11535 -2.16049,0.22304 -1.45651,0.82051 0.22678,0.19241 0.33878,0.42044 0.24898,0.50684 z m -36.64451,-11.60837 v 100.69206 l 0.87249,-0.50269 0.8725,-0.50271 h 78.703441 c 78.4169,0 78.70465,0.001 79.03392,0.31456 0.18175,0.17302 0.44852,0.31457 0.5928,0.31457 0.48049,0 0.27047,-0.45063 -0.32569,-0.69886 l -0.58804,-0.24484 h 0.58804 0.58804 v -69.91235 -69.91236 h -0.79375 c -0.52917,0 -0.79375,-0.0786 -0.79375,-0.23593 0,-0.15733 0.26458,-0.23593 0.79375,-0.23593 h 0.79375 V 83.207589 c 0,-25.366778 -0.0507,-29.254666 -0.38126,-29.254666 -0.63717,0 -0.69444,-0.254532 -0.14242,-0.632897 0.28802,-0.197413 0.52368,-0.418881 0.52368,-0.492151 0,-0.07327 -36.07594,-0.133217 -80.16875,-0.133217 H 38.388539 Z"
       id="path847"
       sodipodi:nodetypes="sssssccsssssssssscsscsssssssssscssssssssssssssssscssssscssssssssssscccsssccccscsccccccccccccscsccccsscsscsccssscccssscscssscssssscscssscssscccsscssscscssssssssssssccsscsccsscscsscccssccccscscccssssscsscsssscccscsscssscccssscsccccsssscccccssscssssscc" />
  </g>
</svg>
